<?xml version="1.0" standalone="no"?>
<!-- Generator: Gravit.io -->
<svg xmlns="http://www.w3.org/2000/svg" xmlns:xlink="http://www.w3.org/1999/xlink" style="isolation:isolate" viewBox="0 0 200 200">
  <g>
    <g id="Group">
      <path d=" M 8 100 C 8 49.224 49.224 8 100 8 C 150.776 8 192 49.224 192 100 C 192 150.776 150.776 192 100 192 C 49.224 192 8 150.776 8 100 Z " fill="rgb(106, 27, 154)"/>
      <path d="M 80.357 42.811 L 119.643 42.811 C 144.94 42.811 165.477 63.348 165.477 88.645 L 165.477 113.013 C 165.477 138.309 144.94 158.847 119.643 158.847 L 80.357 158.847 C 55.06 158.847 34.523 138.309 34.523 113.013 L 34.523 88.645 C 34.523 63.348 55.06 42.811 80.357 42.811 Z" style="stroke:none;fill:#FCFEFD;stroke-miterlimit:10;"/>
      <path d=" M 60.216 90.883 C 60.216 85.394 64.673 80.937 70.162 80.937 C 75.651 80.937 80.108 85.394 80.108 90.883 C 80.108 96.372 75.651 100.829 70.162 100.829 C 64.673 100.829 60.216 96.372 60.216 90.883 Z " fill="rgb(0,0,0)"/>
      <path d=" M 119.892 90.883 C 119.892 85.394 124.349 80.937 129.838 80.937 C 135.327 80.937 139.784 85.394 139.784 90.883 C 139.784 96.372 135.327 100.829 129.838 100.829 C 124.349 100.829 119.892 96.372 119.892 90.883 Z " fill="rgb(0,0,0)"/>
      <rect x="87.568" y="114.919" width="21.55" height="1.658" transform="matrix(1,0,0,1,0,0)" fill="rgb(0,0,0)"/>
      <path d=" M 46.955 121.55 C 46.955 116.518 51.04 112.432 56.072 112.432 C 61.104 112.432 65.189 116.518 65.189 121.55 C 65.189 126.581 61.104 130.667 56.072 130.667 C 51.04 130.667 46.955 126.581 46.955 121.55 Z " fill="rgb(248,131,89)"/>
      <path d=" M 134.811 121.55 C 134.811 116.518 138.896 112.432 143.928 112.432 C 148.96 112.432 153.045 116.518 153.045 121.55 C 153.045 126.581 148.96 130.667 143.928 130.667 C 138.896 130.667 134.811 126.581 134.811 121.55 Z " fill="rgb(248,131,89)"/>
      <path d=" M 59.518 17.393 C 71.73 11.374 85.474 8 100 8 C 114.526 8 128.27 11.374 140.482 17.393 C 141.112 19.961 141.441 22.645 141.441 25.405 C 141.441 44.161 126.215 59.387 107.459 59.387 L 92.541 59.387 C 73.785 59.387 58.559 44.161 58.559 25.405 C 58.559 22.645 58.888 19.961 59.518 17.393 Z " fill="rgb(74, 20, 140)"/>
    </g>
  </g>
</svg>
